<?xml version="1.0" encoding="UTF-8" standalone="no"?>
<!DOCTYPE svg PUBLIC "-//W3C//DTD SVG 1.1//EN" "http://www.w3.org/Graphics/SVG/1.1/DTD/svg11.dtd">
<svg xmlns="http://www.w3.org/2000/svg" version="1.1" viewBox="0.00 0.00 500.00 500.00">
<g stroke-width="2.00" fill="none" stroke-linecap="butt">
<path stroke="#c745b0" vector-effect="non-scaling-stroke" d="
  M 175.18 105.36
  Q 164.73 112.47 155.57 107.94
  Q 150.97 105.67 148.52 98.26"
/>
<path stroke="#98b2d2" stroke-opacity="0.996" vector-effect="non-scaling-stroke" d="
  M 325.76 105.51
  Q 323.76 105.68 323.75 103.80
  Q 323.75 103.29 323.50 102.85
  L 320.78 97.94"
/>
<path stroke="#01d8cc" vector-effect="non-scaling-stroke" d="
  M 208.30 121.61
  C 201.67 122.18 195.21 122.57 192.18 116.75
  C 191.18 114.83 191.53 111.94 190.83 109.44"
/>
<path stroke="#b79fc8" vector-effect="non-scaling-stroke" d="
  M 355.15 122.25
  Q 347.78 121.95 346.38 117.85
  Q 345.28 114.64 344.27 113.08"
/>
<path stroke="#b79fc8" vector-effect="non-scaling-stroke" d="
  M 322.36 123.85
  C 310.92 126.78 314.42 144.96 326.67 141.13
  Q 329.20 140.34 331.83 139.09"
/>
<path stroke="#b79fc8" vector-effect="non-scaling-stroke" d="
  M 295.56 144.52
  C 291.39 145.27 286.66 147.63 283.98 142.36
  Q 281.82 138.14 286.19 133.32"
/>
<path stroke="#01d8cc" vector-effect="non-scaling-stroke" d="
  M 183.77 151.91
  Q 182.66 149.87 180.61 150.26
  C 173.96 151.55 169.92 149.04 169.19 142.23
  Q 168.97 140.13 168.66 138.04"
/>
<path stroke="#b79fc8" vector-effect="non-scaling-stroke" d="
  M 387.24 140.65
  C 376.99 146.12 379.80 160.65 391.76 158.00
  C 394.40 157.41 396.38 155.51 398.61 153.85"
/>
<path stroke="#a91b93" vector-effect="non-scaling-stroke" d="
  M 119.64 156.04
  Q 103.46 163.84 95.88 148.92"
/>
<path stroke="#b43ea6" vector-effect="non-scaling-stroke" d="
  M 255.10 153.82
  C 251.99 153.55 248.16 155.87 246.11 151.87
  Q 244.52 148.78 246.41 144.87"
/>
<path stroke="#99077a" vector-effect="non-scaling-stroke" d="
  M 388.53 178.12
  Q 387.40 178.32 387.50 179.48
  Q 387.54 179.97 387.92 180.29
  C 392.66 184.34 397.97 188.47 402.07 192.56
  Q 416.34 206.81 426.28 224.43
  C 427.82 227.16 431.86 231.68 434.47 227.72"
/>
<path stroke="#b097c8" vector-effect="non-scaling-stroke" d="
  M 203.17 170.80
  C 194.96 169.51 194.62 166.16 190.43 160.19"
/>
<path stroke="#b43ea6" vector-effect="non-scaling-stroke" d="
  M 225.88 171.51
  Q 217.12 172.65 216.35 165.23"
/>
<path stroke="#01d8cc" vector-effect="non-scaling-stroke" d="
  M 172.24 177.30
  C 165.63 178.11 157.41 178.11 157.21 169.90
  Q 157.20 169.42 157.03 168.96
  L 155.93 166.04"
/>
<path stroke="#01d8cc" vector-effect="non-scaling-stroke" d="
  M 419.78 326.45
  Q 418.87 327.23 418.47 329.16
  A 0.32 0.31 -61.6 0 1 417.94 329.32
  Q 414.61 326.05 410.93 325.04
  C 407.66 324.14 404.81 325.82 401.13 323.51"
/>
<path stroke="#01cac3" vector-effect="non-scaling-stroke" d="
  M 401.13 323.51
  C 413.77 264.76 378.42 201.82 321.35 181.31"
/>
<path stroke="#01b4b6" vector-effect="non-scaling-stroke" d="
  M 321.35 181.31
  C 291.92 171.11 253.48 173.50 233.20 199.78"
/>
<path stroke="#008994" vector-effect="non-scaling-stroke" d="
  M 321.35 181.31
  Q 319.15 185.65 313.29 187.57
  Q 309.10 188.94 309.56 192.59"
/>
<path stroke="#00adaa" vector-effect="non-scaling-stroke" d="
  M 401.13 323.51
  Q 394.72 354.28 375.36 378.95
  Q 375.05 379.35 375.02 379.86
  Q 374.95 381.35 375.89 382.30
  Q 376.27 382.69 376.25 383.23
  Q 376.18 385.40 377.63 386.94
  Q 377.99 387.32 378.09 387.83
  L 378.59 390.56"
/>
<path stroke="#99077a" vector-effect="non-scaling-stroke" d="
  M 99.89 194.65
  C 92.64 195.54 85.51 196.17 83.00 187.52
  Q 82.27 185.01 84.32 178.98"
/>
<path stroke="#b43ea6" vector-effect="non-scaling-stroke" d="
  M 210.78 189.72
  C 204.98 189.04 201.01 189.53 200.22 182.21"
/>
<path stroke="#01d8cc" vector-effect="non-scaling-stroke" d="
  M 166.43 206.13
  Q 162.68 207.08 159.21 206.03
  Q 152.92 204.12 153.92 194.71"
/>
<path stroke="#a91b93" vector-effect="non-scaling-stroke" d="
  M 189.63 217.66
  C 182.68 213.51 181.20 210.58 178.23 203.31"
/>
<path stroke="#cd54b6" vector-effect="non-scaling-stroke" d="
  M 358.37 275.68
  Q 354.40 278.77 348.59 278.15"
/>
<path stroke="#af4d9a" vector-effect="non-scaling-stroke" d="
  M 348.59 278.15
  C 341.53 234.43 300.48 189.69 252.56 207.25
  Q 245.47 209.85 239.97 216.10"
/>
<path stroke="#99077a" vector-effect="non-scaling-stroke" d="
  M 348.59 278.15
  C 356.77 326.80 330.03 376.90 294.36 408.01
  A 0.61 0.60 -40.5 0 0 294.29 408.85
  C 296.27 411.32 296.36 413.91 298.21 416.17
  Q 299.65 417.95 300.97 419.83
  Q 301.09 420.01 301.25 419.86
  Q 301.36 419.76 301.53 419.75
  Q 301.80 419.75 301.92 419.98
  L 302.30 420.71"
/>
<path stroke="#b43ea6" vector-effect="non-scaling-stroke" d="
  M 274.24 224.98
  Q 269.73 224.96 267.95 220.72"
/>
<path stroke="#01d8cc" vector-effect="non-scaling-stroke" d="
  M 166.98 234.12
  Q 165.09 232.94 162.91 232.40
  C 155.47 230.57 156.70 227.33 156.69 221.01"
/>
<path stroke="#ba4dac" vector-effect="non-scaling-stroke" d="
  M 287.45 230.15
  Q 286.30 229.60 285.30 230.11
  Q 284.86 230.33 284.39 230.22
  C 281.96 229.64 281.49 226.80 280.99 224.66"
/>
<path stroke="#b43ea6" vector-effect="non-scaling-stroke" d="
  M 196.93 237.16
  Q 186.77 234.25 188.06 225.64"
/>
<path stroke="#a961b4" vector-effect="non-scaling-stroke" d="
  M 300.02 240.99
  Q 294.05 242.99 292.43 235.42"
/>
<path stroke="#774984" vector-effect="non-scaling-stroke" d="
  M 244.05 240.38
  Q 243.24 240.20 242.56 239.17"
/>
<path stroke="#2b5072" vector-effect="non-scaling-stroke" d="
  M 242.69 241.00
  L 242.00 240.06"
/>
<path stroke="#01d8cc" vector-effect="non-scaling-stroke" d="
  M 172.36 257.66
  Q 165.87 255.11 165.07 250.50
  Q 164.68 248.26 164.19 246.04"
/>
<path stroke="#2b5e7b" vector-effect="non-scaling-stroke" d="
  M 255.28 248.60
  Q 255.20 250.03 254.15 251.20"
/>
<path stroke="#680050" vector-effect="non-scaling-stroke" d="
  M 257.21 259.82
  Q 257.22 260.34 257.45 260.64"
/>
<path stroke="#680050" vector-effect="non-scaling-stroke" d="
  M 248.62 257.58
  Q 248.43 258.01 248.51 257.03"
/>
<path stroke="#a4088c" vector-effect="non-scaling-stroke" d="
  M 123.37 253.88
  Q 111.76 258.13 106.95 248.48"
/>
<path stroke="#b43ea6" vector-effect="non-scaling-stroke" d="
  M 204.05 255.35
  Q 196.12 254.70 196.99 246.94"
/>
<path stroke="#a961b4" vector-effect="non-scaling-stroke" d="
  M 310.72 257.86
  Q 301.80 258.24 303.13 250.26"
/>
<path stroke="#01d8cc" vector-effect="non-scaling-stroke" d="
  M 185.02 275.63
  C 180.97 273.58 177.86 272.81 178.29 267.30
  Q 178.33 266.84 177.93 266.61
  Q 177.25 266.21 176.93 265.54"
/>
<path stroke="#b097c8" vector-effect="non-scaling-stroke" d="
  M 316.13 276.52
  Q 309.42 277.14 309.35 270.06"
/>
<path stroke="#99077a" vector-effect="non-scaling-stroke" d="
  M 140.56 283.05
  Q 134.75 282.59 129.72 283.23
  C 126.61 283.63 124.65 285.66 121.74 286.87"
/>
<path stroke="#01d8cc" vector-effect="non-scaling-stroke" d="
  M 208.51 288.77
  C 206.45 288.63 204.24 289.11 202.52 288.84
  C 195.77 287.75 196.78 282.12 197.01 276.96"
/>
<path stroke="#b43ea6" vector-effect="non-scaling-stroke" d="
  M 260.24 285.34
  Q 257.98 281.97 257.84 278.58"
/>
<path stroke="#01cac3" vector-effect="non-scaling-stroke" d="
  M 276.64 288.99
  Q 274.99 284.33 276.93 281.45"
/>
<path stroke="#01d8cc" vector-effect="non-scaling-stroke" d="
  M 231.33 299.72
  Q 222.03 301.97 220.42 296.19
  C 219.95 294.50 220.42 291.81 220.07 289.64"
/>
<path stroke="#01d8cc" vector-effect="non-scaling-stroke" d="
  M 272.33 303.07
  L 270.93 303.21
  Q 270.75 303.23 270.75 303.05
  Q 270.75 302.89 270.75 302.74
  Q 270.76 302.27 270.31 302.15
  Q 264.90 300.68 263.84 294.47"
/>
<path stroke="#01d8cc" vector-effect="non-scaling-stroke" d="
  M 255.72 306.50
  C 253.14 306.90 249.77 307.75 247.43 306.81
  Q 242.31 304.74 241.80 296.80"
/>
<path stroke="#680050" vector-effect="non-scaling-stroke" d="
  M 156.44 308.31
  Q 151.97 312.58 144.26 314.52"
/>
<path stroke="#a93e94" vector-effect="non-scaling-stroke" d="
  M 293.13 311.30
  C 290.51 308.51 288.30 307.61 289.63 302.66"
/>
<path stroke="#99077a" vector-effect="non-scaling-stroke" d="
  M 282.57 328.18
  L 279.28 323.00
  A 0.85 0.83 32.3 0 1 279.15 322.46
  L 279.62 317.91"
/>
<path stroke="#86016f" vector-effect="non-scaling-stroke" d="
  M 122.35 344.19
  Q 102.75 350.59 99.91 329.29"
/>
<path stroke="#86016f" vector-effect="non-scaling-stroke" d="
  M 207.95 329.56
  Q 205.42 334.22 205.27 335.75
  C 204.54 343.13 214.31 341.66 215.92 337.58"
/>
<path stroke="#680050" vector-effect="non-scaling-stroke" d="
  M 270.08 339.92
  Q 267.89 344.95 267.35 350.19
  C 266.83 355.21 270.16 358.53 275.19 357.04
  C 277.67 356.31 280.27 354.16 283.06 352.89"
/>
<path stroke="#86016f" vector-effect="non-scaling-stroke" d="
  M 158.25 414.84
  L 159.11 413.47
  Q 159.36 413.07 159.82 413.12
  Q 197.90 417.56 231.47 399.48
  Q 235.98 397.06 244.83 388.43
  Q 245.16 388.10 245.06 387.65
  Q 244.96 387.12 244.45 387.00
  Q 243.91 386.87 243.56 386.43
  Q 239.72 381.62 235.22 373.54
  Q 233.77 370.94 230.92 373.03"
/>
</g>
<circle fill="#b4f3f0" cx="248.18" cy="77.46" r="12.87"/>
<ellipse fill="#98d4e0" fill-opacity="0.992" cx="0.00" cy="0.00" transform="translate(289.28,69.57) rotate(64.5)" rx="3.39" ry="3.10"/>
<circle fill="#b4f3f0" cx="204.61" cy="85.24" r="12.05"/>
<circle fill="#b4f3f0" cx="275.24" cy="82.48" r="7.09"/>
<circle fill="#01f4e5" cx="179.61" cy="81.46" r="4.60"/>
<circle fill="#c3d4ec" cx="327.07" cy="81.27" r="3.29"/>
<circle fill="#b4f3f0" cx="302.09" cy="87.69" r="7.22"/>
<path fill="#d77bca" d="
  M 175.18 105.36
  Q 164.73 112.47 155.57 107.94
  Q 150.97 105.67 148.52 98.26
  C 154.67 90.96 164.75 89.92 171.37 96.91
  Q 174.83 100.55 175.18 105.36
  Z"
/>
<path fill="#98d4e0" fill-opacity="0.992" d="
  M 325.76 105.51
  Q 323.76 105.68 323.75 103.80
  Q 323.75 103.29 323.50 102.85
  L 320.78 97.94
  Q 341.70 89.86 363.89 98.27
  Q 367.90 99.79 363.61 99.75
  C 350.28 99.64 339.09 100.16 325.76 105.51
  Z"
/>
<circle fill="#01f4e5" cx="227.05" cy="102.79" r="7.57"/>
<ellipse fill="#9891c5" cx="0.00" cy="0.00" transform="translate(288.60,99.86) rotate(51.3)" rx="3.78" ry="3.49"/>
<circle fill="#01f4e5" cx="267.54" cy="108.00" r="10.97"/>
<path fill="#9891c5" d="
  M 320.78 97.94
  L 323.50 102.85
  Q 323.75 103.29 323.75 103.80
  Q 323.76 105.68 325.76 105.51
  L 316.35 110.50
  A 1.18 1.17 -32.3 0 1 314.86 110.17
  L 311.47 105.66
  A 1.67 1.67 0.0 0 1 311.95 103.22
  L 320.78 97.94
  Z"
/>
<path fill="#b60e96" d="
  M 148.52 98.26
  Q 150.97 105.67 155.57 107.94
  Q 164.73 112.47 175.18 105.36
  C 178.84 126.01 147.20 130.29 145.28 109.45
  Q 144.73 103.52 148.52 98.26
  Z"
/>
<path fill="#01f4e5" d="
  M 208.30 121.61
  C 201.67 122.18 195.21 122.57 192.18 116.75
  C 191.18 114.83 191.53 111.94 190.83 109.44
  Q 207.70 104.59 208.30 121.61
  Z"
/>
<ellipse fill="#b4f3f0" cx="0.00" cy="0.00" transform="translate(296.76,115.24) rotate(34.7)" rx="7.39" ry="7.00"/>
<circle fill="#c3d4ec" cx="243.38" cy="115.05" r="5.43"/>
<circle fill="#b4f3f0" cx="127.75" cy="116.34" r="6.56"/>
<path fill="#00bbb3" d="
  M 190.83 109.44
  C 191.53 111.94 191.18 114.83 192.18 116.75
  C 195.21 122.57 201.67 122.18 208.30 121.61
  Q 205.73 133.57 194.46 133.09
  C 189.75 132.88 186.09 129.51 184.53 125.07
  Q 181.17 115.54 190.83 109.44
  Z"
/>
<ellipse fill="#01f4e5" cx="0.00" cy="0.00" transform="translate(371.66,113.32) rotate(92.6)" rx="3.68" ry="3.39"/>
<path fill="#d0e4ed" d="
  M 355.15 122.25
  Q 347.78 121.95 346.38 117.85
  Q 345.28 114.64 344.27 113.08
  Q 348.54 110.12 351.94 111.56
  Q 358.95 114.55 355.15 122.25
  Z"
/>
<path fill="#9d59a3" d="
  M 344.27 113.08
  Q 345.28 114.64 346.38 117.85
  Q 347.78 121.95 355.15 122.25
  C 349.81 130.72 337.70 123.27 344.27 113.08
  Z"
/>
<circle fill="#910181" cx="332.05" cy="116.55" r="2.71"/>
<circle fill="#01f4e5" cx="384.66" cy="123.99" r="3.81"/>
<path fill="#9d59a3" d="
  M 280.31 119.99
  A 0.37 0.37 0.0 0 1 280.83 119.98
  L 281.50 120.61
  A 3.97 3.80 43.8 0 1 281.73 126.10
  L 281.57 126.28
  A 3.97 3.80 43.8 0 1 276.07 126.27
  L 275.41 125.64
  A 0.37 0.37 0.0 0 1 275.39 125.11
  L 280.31 119.99
  Z"
/>
<circle fill="#c3d4ec" cx="254.25" cy="127.55" r="5.32"/>
<path fill="#9d59a3" d="
  M 322.36 123.85
  C 310.92 126.78 314.42 144.96 326.67 141.13
  Q 329.20 140.34 331.83 139.09
  Q 330.38 149.57 319.95 151.24
  C 298.06 154.74 297.79 117.70 322.36 123.85
  Z"
/>
<path fill="#d0e4ed" d="
  M 322.36 123.85
  Q 334.33 127.16 331.83 139.09
  Q 329.20 140.34 326.67 141.13
  C 314.42 144.96 310.92 126.78 322.36 123.85
  Z"
/>
<circle fill="#9891c5" cx="367.81" cy="128.07" r="3.73"/>
<circle fill="#d0e4ed" cx="231.88" cy="134.30" r="7.84"/>
<ellipse fill="#01f4e5" cx="0.00" cy="0.00" transform="translate(154.55,132.22) rotate(80.3)" rx="3.65" ry="3.25"/>
<circle fill="#c034a4" cx="124.09" cy="136.34" r="5.24"/>
<path fill="#d0e4ed" d="
  M 295.56 144.52
  C 291.39 145.27 286.66 147.63 283.98 142.36
  Q 281.82 138.14 286.19 133.32
  Q 296.19 133.26 295.56 144.52
  Z"
/>
<path fill="#9d59a3" d="
  M 286.19 133.32
  Q 281.82 138.14 283.98 142.36
  C 286.66 147.63 291.39 145.27 295.56 144.52
  C 294.83 159.95 270.26 156.33 274.89 140.68
  Q 277.13 133.14 286.19 133.32
  Z"
/>
<ellipse fill="#c034a4" cx="0.00" cy="0.00" transform="translate(359.39,138.73) rotate(81.2)" rx="3.42" ry="3.17"/>
<path fill="#01f4e5" d="
  M 183.77 151.91
  Q 182.66 149.87 180.61 150.26
  C 173.96 151.55 169.92 149.04 169.19 142.23
  Q 168.97 140.13 168.66 138.04
  C 178.49 132.72 189.15 141.18 183.77 151.91
  Z"
/>
<ellipse fill="#c3d4ec" cx="0.00" cy="0.00" transform="translate(210.89,145.01) rotate(56.9)" rx="8.18" ry="7.78"/>
<circle fill="#9891c5" cx="262.87" cy="140.94" r="3.83"/>
<path fill="#00bbb3" d="
  M 168.66 138.04
  Q 168.97 140.13 169.19 142.23
  C 169.92 149.04 173.96 151.55 180.61 150.26
  Q 182.66 149.87 183.77 151.91
  C 180.00 159.44 168.61 161.00 164.29 153.27
  C 161.14 147.63 162.73 141.14 168.66 138.04
  Z"
/>
<ellipse fill="#b4f3f0" cx="0.00" cy="0.00" transform="translate(346.39,142.75) rotate(80.4)" rx="4.70" ry="4.36"/>
<ellipse fill="#c3d4ec" cx="0.00" cy="0.00" transform="translate(144.37,148.06) rotate(77.6)" rx="8.66" ry="8.22"/>
<path fill="#9d59a3" d="
  M 387.24 140.65
  C 376.99 146.12 379.80 160.65 391.76 158.00
  C 394.40 157.41 396.38 155.51 398.61 153.85
  C 400.58 172.44 373.37 174.70 369.97 156.77
  C 368.04 146.54 376.70 138.39 387.24 140.65
  Z"
/>
<path fill="#d0e4ed" d="
  M 387.24 140.65
  Q 398.29 142.34 398.61 153.85
  C 396.38 155.51 394.40 157.41 391.76 158.00
  C 379.80 160.65 376.99 146.12 387.24 140.65
  Z"
/>
<path fill="#c034a4" d="
  M 119.64 156.04
  Q 103.46 163.84 95.88 148.92
  Q 98.37 143.61 104.25 142.36
  C 110.00 141.14 115.47 143.54 118.34 148.66
  Q 120.43 152.41 119.64 156.04
  Z"
/>
<path fill="#d77bca" d="
  M 255.10 153.82
  C 251.99 153.55 248.16 155.87 246.11 151.87
  Q 244.52 148.78 246.41 144.87
  Q 254.90 143.95 255.10 153.82
  Z"
/>
<path fill="#910181" d="
  M 246.41 144.87
  Q 244.52 148.78 246.11 151.87
  C 248.16 155.87 251.99 153.55 255.10 153.82
  Q 253.38 162.26 245.91 161.76
  C 234.92 161.03 234.82 145.88 246.41 144.87
  Z"
/>
<path fill="#910181" d="
  M 95.88 148.92
  Q 103.46 163.84 119.64 156.04
  C 117.78 177.15 86.03 168.53 95.88 148.92
  Z"
/>
<circle fill="#c3d4ec" cx="227.34" cy="155.53" r="4.00"/>
<path fill="#7b005d" d="
  M 388.53 178.12
  Q 387.40 178.32 387.50 179.48
  Q 387.54 179.97 387.92 180.29
  C 392.66 184.34 397.97 188.47 402.07 192.56
  Q 416.34 206.81 426.28 224.43
  C 427.82 227.16 431.86 231.68 434.47 227.72
  C 438.68 244.05 439.20 259.40 439.42 276.13
  Q 439.47 279.67 438.94 276.17
  C 432.64 234.62 408.36 199.28 373.84 176.66
  C 360.33 167.81 344.52 161.14 329.03 156.20
  A 0.41 0.41 0.0 0 1 329.09 155.41
  C 336.04 154.29 360.95 152.77 363.96 160.55
  C 368.58 172.46 377.22 174.83 388.53 178.12
  Z"
/>
<path fill="#c3d4ec" d="
  M 203.17 170.80
  C 194.96 169.51 194.62 166.16 190.43 160.19
  C 197.74 148.47 213.87 163.14 203.17 170.80
  Z"
/>
<path fill="#9d59a3" d="
  M 190.43 160.19
  C 194.62 166.16 194.96 169.51 203.17 170.80
  C 194.24 177.07 184.20 169.49 190.43 160.19
  Z"
/>
<path fill="#d77bca" d="
  M 225.88 171.51
  Q 217.12 172.65 216.35 165.23
  Q 218.82 162.49 222.00 163.75
  Q 226.79 165.64 225.88 171.51
  Z"
/>
<path fill="#01f4e5" d="
  M 172.24 177.30
  C 165.63 178.11 157.41 178.11 157.21 169.90
  Q 157.20 169.42 157.03 168.96
  L 155.93 166.04
  Q 172.37 160.59 172.24 177.30
  Z"
/>
<path fill="#910181" d="
  M 216.35 165.23
  Q 217.12 172.65 225.88 171.51
  Q 220.20 180.50 214.92 174.33
  C 212.13 171.07 213.16 167.59 216.35 165.23
  Z"
/>
<ellipse fill="#d77bca" cx="0.00" cy="0.00" transform="translate(135.83,172.70) rotate(68.1)" rx="7.22" ry="6.98"/>
<path fill="#00bbb3" d="
  M 155.93 166.04
  L 157.03 168.96
  Q 157.20 169.42 157.21 169.90
  C 157.41 178.11 165.63 178.11 172.24 177.30
  C 163.08 195.79 141.23 179.14 155.93 166.04
  Z"
/>
<circle fill="#b4f3f0" cx="412.39" cy="173.32" r="6.24"/>
<path fill="#01f4e5" d="
  M 419.78 326.45
  Q 418.87 327.23 418.47 329.16
  A 0.32 0.31 -61.6 0 1 417.94 329.32
  Q 414.61 326.05 410.93 325.04
  C 407.66 324.14 404.81 325.82 401.13 323.51
  C 413.77 264.76 378.42 201.82 321.35 181.31
  C 291.92 171.11 253.48 173.50 233.20 199.78
  C 221.03 212.38 215.88 227.73 220.10 244.53
  C 220.50 246.11 221.63 248.43 222.26 250.46
  A 0.31 0.31 0.0 0 1 221.71 250.74
  C 215.37 242.31 213.95 230.36 216.33 220.04
  C 223.30 189.83 252.60 171.29 282.20 168.92
  C 365.00 162.29 442.74 242.57 419.78 326.45
  Z"
/>
<circle fill="#9d59a3" cx="117.72" cy="178.79" r="3.93"/>
<path fill="#007387" d="
  M 321.35 181.31
  Q 319.15 185.65 313.29 187.57
  Q 309.10 188.94 309.56 192.59
  C 284.75 181.10 255.01 182.67 233.20 199.78
  C 253.48 173.50 291.92 171.11 321.35 181.31
  Z"
/>
<path fill="#b60e96" d="
  M 388.53 178.12
  C 412.04 184.37 428.68 204.40 434.47 227.72
  C 431.86 231.68 427.82 227.16 426.28 224.43
  Q 416.34 206.81 402.07 192.56
  C 397.97 188.47 392.66 184.34 387.92 180.29
  Q 387.54 179.97 387.50 179.48
  Q 387.40 178.32 388.53 178.12
  Z"
/>
<path fill="#b60e96" d="
  M 99.89 194.65
  C 92.64 195.54 85.51 196.17 83.00 187.52
  Q 82.27 185.01 84.32 178.98
  C 93.62 176.11 101.36 186.02 99.89 194.65
  Z"
/>
<circle fill="#b60e96" cx="183.91" cy="184.82" r="6.42"/>
<path fill="#7b005d" d="
  M 84.32 178.98
  Q 82.27 185.01 83.00 187.52
  C 85.51 196.17 92.64 195.54 99.89 194.65
  C 98.34 201.84 93.42 206.58 85.98 206.83
  C 69.43 207.38 66.27 182.80 84.32 178.98
  Z"
/>
<path fill="#d77bca" d="
  M 210.78 189.72
  C 204.98 189.04 201.01 189.53 200.22 182.21
  Q 211.08 177.34 210.78 189.72
  Z"
/>
<path fill="#009fa0" d="
  M 321.35 181.31
  C 378.42 201.82 413.77 264.76 401.13 323.51
  Q 394.72 354.28 375.36 378.95
  Q 375.05 379.35 375.02 379.86
  Q 374.95 381.35 375.89 382.30
  Q 376.27 382.69 376.25 383.23
  Q 376.18 385.40 377.63 386.94
  Q 377.99 387.32 378.09 387.83
  L 378.59 390.56
  Q 357.36 409.52 332.17 422.19
  A 0.48 0.47 11.0 0 1 331.64 421.41
  C 367.08 390.67 383.03 344.62 378.74 298.26
  C 374.55 252.82 351.37 212.68 309.56 192.59
  Q 309.10 188.94 313.29 187.57
  Q 319.15 185.65 321.35 181.31
  Z"
/>
<path fill="#910181" d="
  M 200.22 182.21
  C 201.01 189.53 204.98 189.04 210.78 189.72
  C 204.58 201.17 192.89 192.25 200.22 182.21
  Z"
/>
<ellipse fill="#98d4e0" fill-opacity="0.992" cx="0.00" cy="0.00" transform="translate(424.10,186.66) rotate(47.7)" rx="3.46" ry="3.19"/>
<ellipse fill="#c0c1e7" cx="0.00" cy="0.00" transform="translate(130.33,196.96) rotate(62.2)" rx="9.51" ry="9.15"/>
<path fill="#01f4e5" d="
  M 166.43 206.13
  Q 162.68 207.08 159.21 206.03
  Q 152.92 204.12 153.92 194.71
  Q 159.74 191.77 164.44 195.56
  Q 169.07 199.31 166.43 206.13
  Z"
/>
<path fill="#00bbb3" d="
  M 153.92 194.71
  Q 152.92 204.12 159.21 206.03
  Q 162.68 207.08 166.43 206.13
  C 163.14 214.20 150.64 214.91 148.74 205.34
  Q 147.24 197.79 153.92 194.71
  Z"
/>
<path fill="#c034a4" d="
  M 189.63 217.66
  C 182.68 213.51 181.20 210.58 178.23 203.31
  Q 183.18 196.20 190.96 198.94
  C 200.85 202.41 200.11 215.64 189.63 217.66
  Z"
/>
<path fill="#e399d6" d="
  M 358.37 275.68
  Q 354.40 278.77 348.59 278.15
  C 341.53 234.43 300.48 189.69 252.56 207.25
  Q 245.47 209.85 239.97 216.10
  Q 236.00 220.40 234.43 222.97
  Q 230.88 228.81 233.36 222.44
  C 239.59 206.41 260.79 198.55 276.76 199.27
  C 318.70 201.16 348.56 238.00 358.37 275.68
  Z"
/>
<path fill="#7b005d" d="
  M 348.59 278.15
  C 356.77 326.80 330.03 376.90 294.36 408.01
  A 0.61 0.60 -40.5 0 0 294.29 408.85
  C 296.27 411.32 296.36 413.91 298.21 416.17
  Q 299.65 417.95 300.97 419.83
  Q 301.09 420.01 301.25 419.86
  Q 301.36 419.76 301.53 419.75
  Q 301.80 419.75 301.92 419.98
  L 302.30 420.71
  Q 271.46 436.66 236.46 435.09
  Q 235.63 435.06 236.37 434.68
  C 240.56 432.54 245.59 430.51 249.09 428.61
  C 275.61 414.22 297.25 388.65 303.78 358.76
  C 304.05 357.51 304.43 356.58 305.33 355.57
  C 335.63 321.06 344.08 268.92 313.26 231.34
  C 295.52 209.71 265.17 197.96 239.97 216.10
  Q 245.47 209.85 252.56 207.25
  C 300.48 189.69 341.53 234.43 348.59 278.15
  Z"
/>
<path fill="#910181" d="
  M 178.23 203.31
  C 181.20 210.58 182.68 213.51 189.63 217.66
  C 179.75 220.28 172.95 212.02 178.23 203.31
  Z"
/>
<circle fill="#b60e96" cx="110.70" cy="213.47" r="7.94"/>
<ellipse fill="#c3d4ec" cx="0.00" cy="0.00" transform="translate(136.72,220.20) rotate(81.7)" rx="6.01" ry="5.60"/>
<ellipse fill="#01f4e5" cx="0.00" cy="0.00" transform="translate(75.20,223.44) rotate(78.0)" rx="5.55" ry="5.22"/>
<ellipse fill="#c034a4" cx="0.00" cy="0.00" transform="translate(258.67,221.55) rotate(69.9)" rx="2.89" ry="2.48"/>
<path fill="#d77bca" d="
  M 274.24 224.98
  Q 269.73 224.96 267.95 220.72
  C 270.44 216.06 276.65 220.22 274.24 224.98
  Z"
/>
<path fill="#01f4e5" d="
  M 166.98 234.12
  Q 165.09 232.94 162.91 232.40
  C 155.47 230.57 156.70 227.33 156.69 221.01
  C 166.19 217.46 173.75 226.10 166.98 234.12
  Z"
/>
<path fill="#550043" d="
  M 98.08 241.33
  A 1.66 1.65 -17.2 0 1 96.32 240.41
  Q 91.92 231.12 92.58 220.79
  Q 92.63 220.03 92.96 220.72
  Q 97.21 229.66 103.91 236.95
  A 1.28 1.28 0.0 0 1 103.76 238.83
  Q 101.24 240.81 98.08 241.33
  Z"
/>
<path fill="#910181" d="
  M 267.95 220.72
  Q 269.73 224.96 274.24 224.98
  C 272.16 230.91 262.52 226.54 267.95 220.72
  Z"
/>
<path fill="#00bbb3" d="
  M 156.69 221.01
  C 156.70 227.33 155.47 230.57 162.91 232.40
  Q 165.09 232.94 166.98 234.12
  C 156.79 244.76 144.37 227.10 156.69 221.01
  Z"
/>
<ellipse fill="#910181" cx="0.00" cy="0.00" transform="translate(248.25,225.09) rotate(53.2)" rx="2.49" ry="2.12"/>
<path fill="#e399d6" d="
  M 287.45 230.15
  Q 286.30 229.60 285.30 230.11
  Q 284.86 230.33 284.39 230.22
  C 281.96 229.64 281.49 226.80 280.99 224.66
  Q 282.41 222.80 284.75 223.50
  Q 288.56 224.64 287.45 230.15
  Z"
/>
<path fill="#910181" d="
  M 280.99 224.66
  C 281.49 226.80 281.96 229.64 284.39 230.22
  Q 284.86 230.33 285.30 230.11
  Q 286.30 229.60 287.45 230.15
  C 283.68 236.77 273.88 230.62 280.99 224.66
  Z"
/>
<path fill="#d77bca" d="
  M 196.93 237.16
  Q 186.77 234.25 188.06 225.64
  Q 192.34 223.84 195.56 226.44
  Q 201.20 230.97 196.93 237.16
  Z"
/>
<circle fill="#c034a4" cx="118.37" cy="231.84" r="6.61"/>
<path fill="#910181" d="
  M 188.06 225.64
  Q 186.77 234.25 196.93 237.16
  C 185.17 250.20 173.32 229.17 188.06 225.64
  Z"
/>
<ellipse fill="#7b005d" cx="0.00" cy="0.00" transform="translate(240.43,229.96) rotate(67.6)" rx="1.73" ry="1.50"/>
<path fill="#9891c5" d="
  M 257.77 231.66
  A 0.93 0.93 0.0 0 1 258.71 230.74
  L 259.58 230.75
  A 2.68 2.44 0.5 0 1 262.24 233.21
  L 262.24 233.57
  A 2.68 2.44 0.5 0 1 259.54 235.99
  L 258.67 235.98
  A 0.93 0.93 0.0 0 1 257.75 235.04
  L 257.77 231.66
  Z"
/>
<ellipse fill="#d77bca" cx="0.00" cy="0.00" transform="translate(251.49,235.46) rotate(24.7)" rx="2.62" ry="2.34"/>
<ellipse fill="#910181" cx="0.00" cy="0.00" transform="translate(233.94,235.76) rotate(53.6)" rx="2.68" ry="2.41"/>
<ellipse fill="#01f4e5" cx="0.00" cy="0.00" transform="translate(268.90,237.55) rotate(124.4)" rx="3.67" ry="3.34"/>
<path fill="#c0c1e7" d="
  M 300.02 240.99
  Q 294.05 242.99 292.43 235.42
  Q 294.40 234.02 296.50 234.25
  Q 301.33 234.79 300.02 240.99
  Z"
/>
<ellipse fill="#c3d4ec" cx="0.00" cy="0.00" transform="translate(139.19,242.95) rotate(75.9)" rx="7.83" ry="7.39"/>
<path fill="#9891c5" d="
  M 244.05 240.38
  Q 243.24 240.20 242.56 239.17
  Q 241.06 237.83 241.79 236.56
  A 2.01 2.01 0.0 0 1 245.42 236.90
  Q 246.23 239.18 244.05 240.38
  Z"
/>
<path fill="#910181" d="
  M 292.43 235.42
  Q 294.05 242.99 300.02 240.99
  C 297.36 251.04 282.51 241.49 292.43 235.42
  Z"
/>
<path fill="#550043" d="
  M 242.56 239.17
  Q 243.24 240.20 244.05 240.38
  Q 242.53 240.46 242.69 241.00
  L 242.00 240.06
  Q 242.58 240.13 242.56 239.17
  Z"
/>
<circle fill="#9d59a3" cx="258.62" cy="241.36" r="2.04"/>
<path fill="#009fa0" d="
  M 242.00 240.06
  L 242.69 241.00
  Q 243.29 243.50 240.93 243.70
  A 1.61 1.61 0.0 0 1 239.22 242.41
  L 238.96 241.12
  A 0.75 0.75 0.0 0 1 239.37 240.30
  Q 240.50 239.74 242.00 240.06
  Z"
/>
<ellipse fill="#01f4e5" cx="0.00" cy="0.00" transform="translate(277.21,245.15) rotate(127.3)" rx="4.00" ry="3.57"/>
<ellipse fill="#910181" cx="0.00" cy="0.00" transform="translate(232.50,244.36) rotate(74.3)" rx="2.70" ry="2.19"/>
<ellipse fill="#b60e96" cx="0.00" cy="0.00" transform="translate(76.62,256.25) rotate(71.3)" rx="14.39" ry="13.97"/>
<path fill="#01f4e5" d="
  M 172.36 257.66
  Q 165.87 255.11 165.07 250.50
  Q 164.68 248.26 164.19 246.04
  C 173.10 240.69 181.27 251.44 172.36 257.66
  Z"
/>
<path fill="#00bbb3" d="
  M 239.96 244.81
  Q 240.70 245.20 241.34 244.85
  Q 242.04 244.47 242.09 245.26
  L 242.30 248.15
  A 0.71 0.71 0.0 0 1 241.75 248.90
  C 238.79 249.59 238.36 247.05 238.93 244.89
  Q 239.04 244.48 239.47 244.50
  Q 239.70 244.51 239.82 244.69
  A 0.33 0.30 -2.2 0 0 239.96 244.81
  Z"
/>
<ellipse fill="#9d59a3" cx="0.00" cy="0.00" transform="translate(263.99,246.41) rotate(115.2)" rx="2.02" ry="1.78"/>
<path fill="#00bbb3" d="
  M 255.28 248.60
  Q 255.20 250.03 254.15 251.20
  Q 251.92 255.22 247.66 253.24
  Q 247.23 253.04 247.04 252.60
  Q 245.91 249.91 246.57 246.97
  A 2.49 2.48 -73.4 0 1 249.85 245.19
  Q 253.53 246.55 255.28 248.60
  Z"
/>
<path fill="#b60e96" d="
  M 123.37 253.88
  Q 111.76 258.13 106.95 248.48
  C 112.74 242.50 121.50 246.58 123.37 253.88
  Z"
/>
<path fill="#00bbb3" d="
  M 164.19 246.04
  Q 164.68 248.26 165.07 250.50
  Q 165.87 255.11 172.36 257.66
  C 161.19 262.91 156.95 249.50 164.19 246.04
  Z"
/>
<path fill="#d77bca" d="
  M 204.05 255.35
  Q 196.12 254.70 196.99 246.94
  Q 206.71 245.33 204.05 255.35
  Z"
/>
<path fill="#910181" d="
  M 196.99 246.94
  Q 196.12 254.70 204.05 255.35
  C 195.68 267.28 182.49 250.91 196.99 246.94
  Z"
/>
<path fill="#910181" d="
  M 106.95 248.48
  Q 111.76 258.13 123.37 253.88
  Q 125.27 264.53 115.30 266.37
  C 105.22 268.24 100.23 255.54 106.95 248.48
  Z"
/>
<path fill="#550043" d="
  M 255.28 248.60
  Q 257.45 250.76 257.91 252.75
  A 0.94 0.93 62.7 0 1 257.63 253.63
  Q 256.27 254.91 255.94 256.69
  A 1.09 1.08 -5.5 0 1 255.27 257.50
  L 252.94 258.41
  A 0.80 0.80 0.0 0 0 252.79 259.82
  Q 255.46 261.57 257.21 259.82
  Q 257.22 260.34 257.45 260.64
  Q 255.61 261.51 254.71 263.27
  A 0.97 0.97 0.0 0 1 252.90 263.05
  Q 251.99 259.11 248.62 257.58
  Q 248.43 258.01 248.51 257.03
  C 250.68 258.47 255.10 254.35 256.19 252.68
  A 1.09 1.08 23.5 0 0 255.54 251.04
  Q 255.01 250.90 254.15 251.20
  Q 255.20 250.03 255.28 248.60
  Z"
/>
<path fill="#b60e96" d="
  M 240.16 256.09
  A 0.11 0.11 0.0 0 1 240.24 256.23
  L 239.67 257.99
  Q 239.49 258.55 238.93 258.75
  C 235.90 259.86 235.63 256.74 235.76 254.74
  A 0.65 0.65 0.0 0 0 235.21 254.04
  Q 232.29 253.58 232.39 250.73
  Q 232.41 250.14 232.96 249.92
  C 236.09 248.71 236.59 252.07 236.02 254.38
  A 0.61 0.61 0.0 0 0 236.45 255.11
  L 240.16 256.09
  Z"
/>
<path fill="#c0c1e7" d="
  M 310.72 257.86
  Q 301.80 258.24 303.13 250.26
  Q 311.79 248.03 310.72 257.86
  Z"
/>
<ellipse fill="#c034a4" cx="0.00" cy="0.00" transform="translate(267.58,252.43) rotate(42.2)" rx="2.40" ry="2.03"/>
<path fill="#910181" d="
  M 303.13 250.26
  Q 301.80 258.24 310.72 257.86
  C 303.25 268.13 293.03 254.90 303.13 250.26
  Z"
/>
<path fill="#9891c5" d="
  M 244.45 254.24
  A 0.41 0.41 0.0 0 1 244.23 254.78
  L 244.18 254.81
  A 1.81 1.75 -23.7 0 1 241.82 253.93
  L 241.47 253.14
  A 1.81 1.75 -23.7 0 1 242.43 250.81
  L 242.48 250.79
  A 0.41 0.41 0.0 0 1 243.02 251.00
  L 244.45 254.24
  Z"
/>
<ellipse fill="#01f4e5" cx="0.00" cy="0.00" transform="translate(282.62,256.26) rotate(-20.8)" rx="4.36" ry="4.02"/>
<path fill="#7b005d" d="
  M 248.51 257.03
  Q 248.43 258.01 248.62 257.58
  Q 247.60 257.85 246.67 257.98
  Q 245.74 258.10 245.38 257.66
  Q 245.01 257.18 245.37 256.31
  Q 245.56 255.86 246.01 256.04
  L 248.51 257.03
  Z"
/>
<ellipse fill="#b60e96" cx="0.00" cy="0.00" transform="translate(267.75,258.46) rotate(21.1)" rx="2.51" ry="2.11"/>
<ellipse fill="#01f4e5" cx="0.00" cy="0.00" transform="translate(227.84,260.07) rotate(50.5)" rx="2.80" ry="2.15"/>
<path fill="#7b005d" d="
  M 257.45 260.64
  Q 257.22 260.34 257.21 259.82
  Q 257.41 258.38 258.12 258.43
  A 1.39 1.39 0.0 0 1 258.82 260.94
  Q 258.55 261.14 257.45 260.64
  Z"
/>
<circle fill="#b60e96" cx="133.84" cy="262.29" r="3.55"/>
<path fill="#b60e96" d="
  M 240.59 259.85
  A 0.70 0.70 0.0 0 1 241.29 259.15
  L 242.34 259.15
  A 1.69 1.11 -0.1 0 1 244.03 260.26
  L 244.03 261.30
  A 1.69 1.11 -0.1 0 1 242.34 262.41
  L 241.29 262.41
  A 0.70 0.70 0.0 0 1 240.59 261.71
  L 240.59 259.85
  Z"
/>
<ellipse fill="#7b005d" cx="0.00" cy="0.00" transform="translate(248.00,262.33) rotate(49.0)" rx="2.11" ry="1.86"/>
<circle fill="#b60e96" cx="148.68" cy="267.41" r="6.28"/>
<circle fill="#b60e96" cx="209.31" cy="266.15" r="5.19"/>
<path fill="#7b005d" d="
  M 262.43 263.51
  A 0.74 0.74 0.0 0 1 263.08 262.69
  L 264.97 262.46
  A 2.05 1.57 -7.0 0 1 267.20 263.77
  L 267.25 264.14
  A 2.05 1.57 -7.0 0 1 265.40 265.95
  L 263.51 266.18
  A 0.74 0.74 0.0 0 1 262.68 265.54
  L 262.43 263.51
  Z"
/>
<path fill="#01f4e5" d="
  M 185.02 275.63
  C 180.97 273.58 177.86 272.81 178.29 267.30
  Q 178.33 266.84 177.93 266.61
  Q 177.25 266.21 176.93 265.54
  C 185.26 259.44 193.41 269.75 185.02 275.63
  Z"
/>
<circle fill="#c034a4" cx="235.21" cy="266.18" r="2.17"/>
<ellipse fill="#550043" cx="0.00" cy="0.00" transform="translate(273.93,266.39) rotate(113.2)" rx="1.12" ry="0.84"/>
<path fill="#00bbb3" d="
  M 176.93 265.54
  Q 177.25 266.21 177.93 266.61
  Q 178.33 266.84 178.29 267.30
  C 177.86 272.81 180.97 273.58 185.02 275.63
  C 177.14 281.54 170.25 271.01 176.93 265.54
  Z"
/>
<circle fill="#01f4e5" cx="284.74" cy="270.40" r="4.69"/>
<path fill="#b60e96" d="
  M 257.51 267.50
  A 1.08 1.08 0.0 0 1 258.52 266.35
  L 259.12 266.32
  A 3.24 2.05 -3.7 0 1 262.48 268.15
  L 262.53 268.79
  A 3.24 2.05 -3.7 0 1 259.42 271.05
  L 258.83 271.08
  A 1.08 1.08 0.0 0 1 257.68 270.08
  L 257.51 267.50
  Z"
/>
<circle fill="#b60e96" cx="243.46" cy="270.03" r="2.26"/>
<circle fill="#b60e96" cx="252.16" cy="270.79" r="2.38"/>
<path fill="#c3d4ec" d="
  M 316.13 276.52
  Q 309.42 277.14 309.35 270.06
  C 314.04 266.31 319.02 271.49 316.13 276.52
  Z"
/>
<path fill="#9d59a3" d="
  M 309.35 270.06
  Q 309.42 277.14 316.13 276.52
  C 311.09 281.32 303.42 275.81 309.35 270.06
  Z"
/>
<path fill="#550043" d="
  M 110.42 282.87
  C 106.26 281.68 101.17 275.35 99.03 271.19
  A 0.30 0.30 0.0 0 1 99.45 270.79
  Q 105.62 274.41 112.83 274.60
  A 0.90 0.89 8.4 0 1 113.67 275.73
  L 111.96 282.00
  A 1.24 1.24 0.0 0 1 110.42 282.87
  Z"
/>
<circle fill="#b60e96" cx="220.19" cy="275.48" r="4.23"/>
<circle fill="#b60e96" cx="269.80" cy="274.29" r="2.82"/>
<ellipse fill="#550043" cx="0.00" cy="0.00" transform="translate(301.12,273.77) rotate(92.2)" rx="1.03" ry="0.87"/>
<path fill="#b60e96" d="
  M 140.56 283.05
  Q 134.75 282.59 129.72 283.23
  C 126.61 283.63 124.65 285.66 121.74 286.87
  C 120.84 282.13 122.71 278.07 127.23 276.13
  Q 135.65 272.51 140.56 283.05
  Z"
/>
<path fill="#b60e96" d="
  M 358.37 275.68
  C 362.27 289.50 363.09 303.02 362.53 317.28
  C 360.81 360.64 339.93 398.28 302.30 420.71
  L 301.92 419.98
  Q 301.80 419.75 301.53 419.75
  Q 301.36 419.76 301.25 419.86
  Q 301.09 420.01 300.97 419.83
  Q 299.65 417.95 298.21 416.17
  C 296.36 413.91 296.27 411.32 294.29 408.85
  A 0.61 0.60 -40.5 0 1 294.36 408.01
  C 330.03 376.90 356.77 326.80 348.59 278.15
  Q 354.40 278.77 358.37 275.68
  Z"
/>
<path fill="#01f4e5" d="
  M 208.51 288.77
  C 206.45 288.63 204.24 289.11 202.52 288.84
  C 195.77 287.75 196.78 282.12 197.01 276.96
  C 204.99 274.10 211.88 280.79 208.51 288.77
  Z"
/>
<path fill="#00bbb3" d="
  M 197.01 276.96
  C 196.78 282.12 195.77 287.75 202.52 288.84
  C 204.24 289.11 206.45 288.63 208.51 288.77
  C 204.41 299.46 189.57 296.73 189.75 285.75
  Q 189.85 279.19 197.01 276.96
  Z"
/>
<circle fill="#c034a4" cx="233.18" cy="281.20" r="3.97"/>
<path fill="#d77bca" d="
  M 260.24 285.34
  Q 257.98 281.97 257.84 278.58
  C 263.36 276.46 264.98 284.50 260.24 285.34
  Z"
/>
<path fill="#910181" d="
  M 257.84 278.58
  Q 257.98 281.97 260.24 285.34
  C 255.57 287.29 253.25 281.36 257.84 278.58
  Z"
/>
<ellipse fill="#c034a4" cx="0.00" cy="0.00" transform="translate(246.50,283.89) rotate(84.8)" rx="3.96" ry="3.69"/>
<path fill="#01f4e5" d="
  M 276.64 288.99
  Q 274.99 284.33 276.93 281.45
  C 283.16 277.49 288.30 285.88 282.62 289.54
  Q 279.58 291.50 276.64 288.99
  Z"
/>
<path fill="#009fa0" d="
  M 276.93 281.45
  Q 274.99 284.33 276.64 288.99
  Q 272.64 284.61 276.93 281.45
  Z"
/>
<ellipse fill="#910181" cx="0.00" cy="0.00" transform="translate(303.37,284.14) rotate(111.4)" rx="2.68" ry="2.31"/>
<circle fill="#910181" cx="159.40" cy="288.38" r="6.80"/>
<path fill="#7b005d" d="
  M 140.56 283.05
  C 141.79 297.05 124.96 299.86 121.74 286.87
  C 124.65 285.66 126.61 283.63 129.72 283.23
  Q 134.75 282.59 140.56 283.05
  Z"
/>
<ellipse fill="#b60e96" cx="0.00" cy="0.00" transform="translate(83.81,301.94) rotate(54.7)" rx="14.78" ry="14.42"/>
<path fill="#01f4e5" d="
  M 231.33 299.72
  Q 222.03 301.97 220.42 296.19
  C 219.95 294.50 220.42 291.81 220.07 289.64
  Q 225.29 287.81 228.69 290.56
  Q 233.16 294.19 231.33 299.72
  Z"
/>
<circle fill="#c3d4ec" cx="312.36" cy="294.81" r="5.84"/>
<path fill="#00bbb3" d="
  M 220.07 289.64
  C 220.42 291.81 219.95 294.50 220.42 296.19
  Q 222.03 301.97 231.33 299.72
  C 228.33 310.10 214.43 309.81 213.81 298.58
  Q 213.47 292.31 220.07 289.64
  Z"
/>
<ellipse fill="#910181" cx="0.00" cy="0.00" transform="translate(298.04,294.52) rotate(96.3)" rx="3.45" ry="3.03"/>
<path fill="#01f4e5" d="
  M 272.33 303.07
  L 270.93 303.21
  Q 270.75 303.23 270.75 303.05
  Q 270.75 302.89 270.75 302.74
  Q 270.76 302.27 270.31 302.15
  Q 264.90 300.68 263.84 294.47
  C 272.01 287.27 278.94 299.47 272.33 303.07
  Z"
/>
<ellipse fill="#550043" cx="0.00" cy="0.00" transform="translate(111.70,296.14) rotate(87.4)" rx="1.82" ry="1.57"/>
<path fill="#01f4e5" d="
  M 255.72 306.50
  C 253.14 306.90 249.77 307.75 247.43 306.81
  Q 242.31 304.74 241.80 296.80
  C 249.70 290.73 258.67 296.93 255.72 306.50
  Z"
/>
<path fill="#00bbb3" d="
  M 263.84 294.47
  Q 264.90 300.68 270.31 302.15
  Q 270.76 302.27 270.75 302.74
  Q 270.75 302.89 270.75 303.05
  Q 270.75 303.23 270.93 303.21
  L 272.33 303.07
  C 266.38 307.66 260.14 301.00 263.84 294.47
  Z"
/>
<path fill="#00bbb3" d="
  M 241.80 296.80
  Q 242.31 304.74 247.43 306.81
  C 249.77 307.75 253.14 306.90 255.72 306.50
  Q 253.62 312.84 247.84 313.30
  C 238.25 314.07 235.02 302.45 241.80 296.80
  Z"
/>
<path fill="#7b005d" d="
  M 156.44 308.31
  Q 151.97 312.58 144.26 314.52
  Q 139.10 311.69 141.20 306.01
  C 144.40 297.32 155.11 299.34 156.44 308.31
  Z"
/>
<ellipse fill="#910181" cx="0.00" cy="0.00" transform="translate(178.69,307.82) rotate(7.3)" rx="7.46" ry="6.93"/>
<path fill="#d77bca" d="
  M 293.13 311.30
  C 290.51 308.51 288.30 307.61 289.63 302.66
  C 295.27 301.61 297.94 307.69 293.13 311.30
  Z"
/>
<path fill="#7b005d" d="
  M 289.63 302.66
  C 288.30 307.61 290.51 308.51 293.13 311.30
  C 286.06 315.29 281.32 305.17 289.63 302.66
  Z"
/>
<ellipse fill="#b60e96" cx="0.00" cy="0.00" transform="translate(122.48,312.33) rotate(48.1)" rx="9.53" ry="9.16"/>
<path fill="#550043" d="
  M 156.44 308.31
  C 157.56 315.86 150.15 319.94 144.26 314.52
  Q 151.97 312.58 156.44 308.31
  Z"
/>
<circle fill="#c3d4ec" cx="306.11" cy="315.12" r="5.67"/>
<circle fill="#910181" cx="202.73" cy="315.21" r="4.71"/>
<ellipse fill="#550043" cx="0.00" cy="0.00" transform="translate(167.41,317.87) rotate(54.3)" rx="1.59" ry="1.21"/>
<path fill="#b60e96" d="
  M 282.57 328.18
  L 279.28 323.00
  A 0.85 0.83 32.3 0 1 279.15 322.46
  L 279.62 317.91
  C 287.72 316.70 289.50 325.23 282.57 328.18
  Z"
/>
<path fill="#7b005d" d="
  M 279.62 317.91
  L 279.15 322.46
  A 0.85 0.83 32.3 0 0 279.28 323.00
  L 282.57 328.18
  C 275.37 330.62 271.53 320.63 279.62 317.91
  Z"
/>
<circle fill="#910181" cx="220.98" cy="322.58" r="4.21"/>
<ellipse fill="#b60e96" cx="0.00" cy="0.00" transform="translate(187.82,324.29) rotate(79.8)" rx="3.50" ry="3.04"/>
<path fill="#00bbb3" d="
  M 401.13 323.51
  C 404.81 325.82 407.66 324.14 410.93 325.04
  Q 414.61 326.05 417.94 329.32
  A 0.32 0.31 -61.6 0 0 418.47 329.16
  Q 418.87 327.23 419.78 326.45
  C 413.07 351.54 397.87 373.54 378.59 390.56
  L 378.09 387.83
  Q 377.99 387.32 377.63 386.94
  Q 376.18 385.40 376.25 383.23
  Q 376.27 382.69 375.89 382.30
  Q 374.95 381.35 375.02 379.86
  Q 375.05 379.35 375.36 378.95
  Q 394.72 354.28 401.13 323.51
  Z"
/>
<ellipse fill="#7b005d" cx="0.00" cy="0.00" transform="translate(145.24,331.88) rotate(39.3)" rx="8.60" ry="7.76"/>
<path fill="#550043" d="
  M 229.22 341.90
  L 226.85 336.15
  A 1.07 1.06 65.6 0 1 227.36 334.78
  C 233.87 331.60 239.42 330.21 245.30 325.55
  A 0.45 0.45 0.0 0 1 246.03 325.98
  C 244.84 333.36 238.45 342.03 230.22 342.53
  A 1.03 1.02 77.0 0 1 229.22 341.90
  Z"
/>
<circle fill="#b60e96" cx="177.77" cy="333.19" r="6.00"/>
<circle fill="#910181" cx="260.72" cy="332.13" r="3.64"/>
<path fill="#910181" d="
  M 122.35 344.19
  Q 102.75 350.59 99.91 329.29
  Q 118.12 326.47 122.35 344.19
  Z"
/>
<path fill="#7b005d" d="
  M 207.95 329.56
  Q 205.42 334.22 205.27 335.75
  C 204.54 343.13 214.31 341.66 215.92 337.58
  Q 217.02 346.42 209.93 349.52
  C 197.34 355.03 188.92 338.15 199.91 330.64
  Q 203.56 328.14 207.95 329.56
  Z"
/>
<path fill="#7b005d" d="
  M 99.91 329.29
  Q 102.75 350.59 122.35 344.19
  Q 123.30 352.91 116.49 358.28
  C 104.81 367.51 87.82 356.88 89.61 342.41
  Q 90.73 333.38 99.91 329.29
  Z"
/>
<path fill="#910181" d="
  M 207.95 329.56
  C 212.00 330.57 215.50 332.71 215.92 337.58
  C 214.31 341.66 204.54 343.13 205.27 335.75
  Q 205.42 334.22 207.95 329.56
  Z"
/>
<circle fill="#c3d4ec" cx="294.72" cy="335.64" r="6.17"/>
<path fill="#550043" d="
  M 270.08 339.92
  Q 267.89 344.95 267.35 350.19
  C 266.83 355.21 270.16 358.53 275.19 357.04
  C 277.67 356.31 280.27 354.16 283.06 352.89
  C 283.40 361.99 275.18 367.55 267.12 366.03
  C 251.16 363.03 252.11 339.54 270.08 339.92
  Z"
/>
<path fill="#7b005d" d="
  M 270.08 339.92
  Q 281.84 340.53 283.06 352.89
  C 280.27 354.16 277.67 356.31 275.19 357.04
  C 270.16 358.53 266.83 355.21 267.35 350.19
  Q 267.89 344.95 270.08 339.92
  Z"
/>
<circle fill="#550043" cx="162.61" cy="348.12" r="3.60"/>
<path fill="#7b005d" d="
  M 158.25 414.84
  L 159.11 413.47
  Q 159.36 413.07 159.82 413.12
  Q 197.90 417.56 231.47 399.48
  Q 235.98 397.06 244.83 388.43
  Q 245.16 388.10 245.06 387.65
  Q 244.96 387.12 244.45 387.00
  Q 243.91 386.87 243.56 386.43
  Q 239.72 381.62 235.22 373.54
  Q 233.77 370.94 230.92 373.03
  Q 240.42 360.43 245.33 345.10
  A 0.61 0.61 0.0 0 1 246.52 345.26
  C 247.05 361.45 255.09 375.14 273.27 375.23
  A 1.05 1.05 0.0 0 1 274.30 376.46
  Q 273.81 379.25 272.53 381.78
  Q 256.99 412.39 225.28 421.15
  C 205.02 426.74 177.06 424.85 158.25 414.84
  Z"
/>
<circle fill="#b60e96" cx="182.45" cy="355.12" r="7.87"/>
<path fill="#550043" d="
  M 174.24 390.14
  C 171.83 390.06 170.45 388.78 170.61 386.42
  A 0.96 0.96 0.0 0 1 171.16 385.62
  C 176.99 382.91 183.61 380.25 188.65 377.49
  Q 205.73 368.14 218.43 353.17
  Q 221.46 349.61 226.50 351.73
  C 231.31 353.75 227.93 359.16 225.58 362.57
  C 214.32 378.90 194.69 390.78 174.24 390.14
  Z"
/>
<ellipse fill="#b60e96" cx="0.00" cy="0.00" transform="translate(144.43,374.97) rotate(25.8)" rx="17.84" ry="17.53"/>
<path fill="#550043" d="
  M 172.70 369.72
  A 0.91 0.91 0.0 0 1 174.47 369.97
  L 174.51 370.97
  A 0.59 0.59 0.0 0 1 173.78 371.56
  Q 172.22 371.17 172.70 369.72
  Z"
/>
<path fill="#910181" d="
  M 158.25 414.84
  L 147.80 410.00
  Q 145.94 409.14 147.99 409.21
  C 178.49 410.28 211.63 397.47 230.92 373.03
  Q 233.77 370.94 235.22 373.54
  Q 239.72 381.62 243.56 386.43
  Q 243.91 386.87 244.45 387.00
  Q 244.96 387.12 245.06 387.65
  Q 245.16 388.10 244.83 388.43
  Q 235.98 397.06 231.47 399.48
  Q 197.90 417.56 159.82 413.12
  Q 159.36 413.07 159.11 413.47
  L 158.25 414.84
  Z"
/>
</svg>
